<?xml version="1.0" standalone="no"?>
<!DOCTYPE svg PUBLIC "-//W3C//DTD SVG 1.1//EN"
  "http://www.w3.org/Graphics/SVG/1.1/DTD/svg11.dtd">
<svg version="1.1" xmlns="http://www.w3.org/2000/svg" xmlns:xlink="http://www.w3.org/1999/xlink" width="1280" height="720" viewBox="-1040.8888888888887 -32 1889.7777777777776 1063" id="ccdiagram"><filter id="grayscale"><feColorMatrix type="matrix" values="0.3333 0.3333 0.3333 0 0 0.3333 0.3333 0.3333 0 0 0.3333 0.3333 0.3333 0 0 0 0 0 1 0"></feColorMatrix></filter><defs><style type="text/css">@import url('https://fonts.googleapis.com/css?family=Open+Sans:400,700|Inconsolata:400');</style></defs><g>0<g pointer-events="auto"></g>0<g pointer-events="auto"></g><g></g><g pointer-events="auto"></g><g></g><g pointer-events="auto"></g><g pointer-events="none"></g><g pointer-events="auto"><g><g cursor="cell"><line x1="-160" y1="537" x2="-138" y2="524" stroke="red" stroke-width="8" opacity="0"></line><line x1="-160" y1="537" x2="-138" y2="524" stroke="#000000" stroke-width="2" stroke-linecap="round"></line><polygon points="-128 518, -154 523, -140 525, -137 533, -128 518" stroke-linejoin="round" fill="#000000" stroke="#000000" stroke-width="1"></polygon></g></g><g><g cursor="cell"><line x1="320" y1="518" x2="342" y2="505" stroke="red" stroke-width="8" opacity="0"></line><line x1="320" y1="518" x2="342" y2="505" stroke="#000000" stroke-width="2" stroke-linecap="round"></line><polygon points="352 500, 326 505, 340 507, 343 514, 352 500" stroke-linejoin="round" fill="#000000" stroke="#000000" stroke-width="1"></polygon></g></g><g><g cursor="cell"><line x1="-144" y1="472" x2="-278" y2="394" stroke="red" stroke-width="8" opacity="0"></line><line x1="-144" y1="472" x2="-278" y2="394" stroke="#000000" stroke-width="2" stroke-linecap="round"></line><polygon points="-288 389, -279 403, -276 396, -262 394, -288 389" stroke-linejoin="round" fill="#000000" stroke="#000000" stroke-width="1"></polygon></g></g><g><g cursor="cell"><line x1="-332" y1="636" x2="-266" y2="598" stroke="red" stroke-width="8" opacity="0"></line><line x1="-332" y1="636" x2="-266" y2="598" stroke="#000000" stroke-width="2" stroke-linecap="round"></line><polygon points="-256 592, -282 597, -268 599, -265 607, -256 592" stroke-linejoin="round" fill="#000000" stroke="#000000" stroke-width="1"></polygon></g></g><g><g cursor="cell"><line x1="112" y1="564" x2="-48" y2="509" stroke="red" stroke-width="8" opacity="0"></line><line x1="112" y1="564" x2="-48" y2="509" stroke="#000000" stroke-width="2" stroke-linecap="round"></line></g></g><g><g cursor="cell"><line x1="-48" y1="472" x2="-10" y2="450" stroke="red" stroke-width="8" opacity="0"></line><line x1="-48" y1="472" x2="-10" y2="450" stroke="#000000" stroke-width="2" stroke-linecap="round"></line><polygon points="0 444, -26 449, -12 451, -9 459, 0 444" stroke-linejoin="round" fill="#000000" stroke="#000000" stroke-width="1"></polygon></g></g><g><g cursor="cell"><line x1="-144" y1="472" x2="-112" y2="416" stroke="red" stroke-width="8" opacity="0"></line><line x1="-144" y1="472" x2="-112" y2="416" stroke="#000000" stroke-width="2" stroke-linecap="round"></line></g></g><g><g cursor="cell"><line x1="211" y1="572" x2="112" y2="564" stroke="red" stroke-width="8" opacity="0"></line><line x1="211" y1="572" x2="112" y2="564" stroke="#000000" stroke-width="2" stroke-linecap="round"></line><polygon points="224 574, 201 565, 207 572, 198 578, 224 574" stroke-linejoin="round" fill="#000000" stroke="#000000" stroke-width="1"></polygon></g></g><g><g cursor="cell"><line x1="-64" y1="518" x2="-48" y2="509" stroke="red" stroke-width="8" opacity="0"></line><line x1="-64" y1="518" x2="-48" y2="509" stroke="#000000" stroke-width="2" stroke-linecap="round"></line></g></g><g><g cursor="cell"><line x1="-112" y1="416" x2="-156" y2="322" stroke="red" stroke-width="8" opacity="0"></line><line x1="-112" y1="416" x2="-156" y2="322" stroke="#000000" stroke-width="2" stroke-linecap="round"></line><polygon points="-160 315, -165 330, -155 324, -142 326, -160 315" stroke-linejoin="round" fill="#000000" stroke="#000000" stroke-width="1"></polygon></g></g><g><g cursor="cell"><line x1="96" y1="389" x2="138" y2="364" stroke="red" stroke-width="8" opacity="0"></line><line x1="96" y1="389" x2="138" y2="364" stroke="#000000" stroke-width="2" stroke-linecap="round"></line><polygon points="147 359, 122 364, 135 366, 138 374, 147 359" stroke-linejoin="round" fill="#000000" stroke="#000000" stroke-width="1"></polygon></g></g></g><g pointer-events="auto"><g opacity="1"><g id="ac8739ff-10d5-4be0-867f-6d985e0e544a" transform="translate(0 0)"><svg x="109" y="250" height="115.695" width="100.625" viewBox="0 0 26.624 30.611"><path d="M13.312.306v15l12.99-7.5z" fill="#4286c5" fill-rule="evenodd"></path><path d="M.322 7.806l12.99 7.5v-15z" fill="#26527b" fill-rule="evenodd"></path><path d="M13.312.306v15" fill="none" stroke="#318bce" stroke-width=".265"></path><path d="M13.312 15.306l12.99-7.5-6.495 18.75-6.495 3.75z" fill="#26527b" fill-rule="evenodd"></path><path d="M.322 7.806l12.99 7.5v15l-6.495-3.75z" fill="#326ca2" fill-rule="evenodd"></path><path d="M.322 7.806l12.99 7.5 12.99-7.5-12.99 7.5v15" fill="none" stroke="#5aa2d8" stroke-width=".265"></path><path d="M13.312.306l-12.99 7.5 6.495 18.75 6.495 3.75 6.495-3.75 6.495-18.75z" fill="none" stroke="#000000" stroke-width=".529"></path></svg></g></g><g opacity="1"><g id="dd0a2a98-b3f5-4b64-bc5f-2758f7d0f974" transform="translate(0 0)"><svg x="335" y="388" height="120.799" width="97" viewBox="0 0 25.665 31.962"><path d="M.269 5.1v21.761l8.375 4.836V9.937z" fill="#d2d2d4" fill-rule="evenodd"></path><path d="M4.457 2.682v4.836l4.187 2.418h8.376l4.188-2.418V2.682L17.02.265H8.644z" fill="none" stroke="#000" stroke-width=".269"></path><path d="M8.644 9.936h8.376v21.76H8.644z" fill="#d2d2d4" fill-rule="evenodd"></path><path d="M.269 5.1v4.836l8.375 4.836h8.376l8.376-4.836V5.1L17.02.265H8.644z" fill="#ececed" fill-rule="evenodd"></path><path d="M17.02 9.936L25.396 5.1v21.761l-8.376 4.836z" fill="#b8b8bb" fill-rule="evenodd"></path><path d="M8.644 14.772V9.936h8.376v4.836z" fill="none" stroke="#83838a" stroke-width=".269"></path><g fill="none" stroke="#83838a"><path d="M.269 5.1l8.375 4.836h8.376L25.396 5.1M8.644 9.936v21.76M17.02 9.936v21.76" stroke-width=".26865"></path></g><path d="M.269 9.936l4.188-2.418V2.682L.269 5.1z" fill="#ececed" fill-rule="evenodd" stroke="#83838a" stroke-width=".269"></path><path d="M8.644 14.772V9.936L4.457 7.518.269 9.936z" fill="none" stroke="#83838a" stroke-width=".269"></path><path d="M21.208 7.518V2.682L25.396 5.1v4.836" fill="#d2d2d4" fill-rule="evenodd" stroke="#83838a" stroke-width=".269"></path><path d="M25.396 9.936l-4.188-2.418-4.188 2.418v4.836z" fill="#d2d2d4" fill-rule="evenodd" stroke="#83838a" stroke-width=".269"></path><path d="M.269 5.1v21.761l8.375 4.836h8.376l8.376-4.836V5.101L17.02.264H8.644z" fill="none" stroke="#000000" stroke-width=".529"></path><g transform="scale(.29127 .16816) rotate(45 -326.555 -2684.243)"><circle cx="1484" cy="-2012" fill="#4286c5" r="17.6" transform="matrix(1.25 0 0 1.25 0 1488.188)"></circle><path d="M1847.206-1009.63h15.588l-7.794-4.5zM1847.206-1017.135h15.588v-4.5h-15.588zM1847.206-1024.563h15.588v-4.5h-15.588zM1847.206-1031.99h15.588v-4.5h-15.588zM1847.206-1039.418h15.588l-7.794-4.5z" fill="#fff" fill-rule="evenodd"></path></g></svg></g></g><g opacity="1"><g id="4752e4d2-a5a9-4ff3-b13d-80e27de0c4e9" transform="translate(0 0)"><svg x="-238" y="173" height="148.981" width="91.956" viewBox="0 0 24.33 39.418"><g transform="translate(240.35 -115.335)"><path d="M-240.082 146.018v4.445l6.973 4.025v-4.445z" fill="#d2d2d4" fill-rule="evenodd"></path><path d="M-233.11 150.043l9.858-.003v4.445l-9.857.003z" fill="#d2d2d4" fill-rule="evenodd"></path><path d="M-223.252 150.04l6.967-4.027v4.445l-6.967 4.028z" fill="#b8b8bb" fill-rule="evenodd"></path><path d="M-223.252 150.04v4.445" fill="none" stroke="#83838a" stroke-width=".267"></path><path d="M302.99-2468.894l-36.732 47.87-59.823 7.876-47.87-36.732-7.875-59.823 36.732-47.87 59.822-7.876 47.87 36.732z" fill="#848586" stroke="#83838a" stroke-width="2.151" transform="matrix(.0995 .07485 -.12957 .05747 -573.282 269.258)"></path><path d="M-240.082 139.12v4.445l6.973 4.025v-4.445z" fill="#d2d2d4" fill-rule="evenodd"></path><path d="M-233.11 143.145l9.858-.003v4.445l-9.857.003z" fill="#d2d2d4" fill-rule="evenodd"></path><path d="M-223.252 143.143l6.967-4.028v4.445l-6.967 4.028z" fill="#b8b8bb" fill-rule="evenodd"></path><path d="M302.99-2468.894l-36.732 47.87-59.823 7.876-47.87-36.732-7.875-59.823 36.732-47.87 59.822-7.876 47.87 36.732z" fill="#848586" stroke="#83838a" stroke-width="2.151" transform="matrix(.0995 .07485 -.12957 .05747 -573.282 262.36)"></path><path d="M-240.082 132.222v4.445l6.973 4.025v-4.445z" fill="#d2d2d4" fill-rule="evenodd"></path><path d="M-233.11 136.247l9.858-.003v4.445l-9.857.003z" fill="#d2d2d4" fill-rule="evenodd"></path><path d="M-223.252 136.245l6.967-4.028v4.445l-6.967 4.028z" fill="#b8b8bb" fill-rule="evenodd"></path><path d="M302.99-2468.894l-36.732 47.87-59.823 7.876-47.87-36.732-7.875-59.823 36.732-47.87 59.822-7.876 47.87 36.732z" fill="#848586" stroke="#83838a" stroke-width="2.151" transform="matrix(.0995 .07485 -.12957 .05747 -573.282 255.462)"></path><path d="M-240.082 125.324v4.445l6.973 4.025v-4.445z" fill="#d2d2d4" fill-rule="evenodd"></path><path d="M-233.11 129.349l9.858-.003v4.445l-9.857.003z" fill="#d2d2d4" fill-rule="evenodd"></path><path d="M-223.252 129.347l6.967-4.028v4.445l-6.967 4.028z" fill="#b8b8bb" fill-rule="evenodd"></path><path d="M-223.252 129.347l-9.857.002-6.973-4.025-.003-5.694 6.967-4.028 9.857-.002 6.973 4.025.003 5.694z" fill="#ececed"></path><path d="M-240.082 125.324l6.964 4.074 9.866-.053 6.967-4.026M-233.118 129.398l.008 4.396M-223.252 129.345v4.445" fill="none" stroke="#83838a" stroke-width=".267"></path><path d="M-240.085 119.63l.003 10.139 6.972 4.025 9.857-.003 6.966-4.027-.002-10.14-6.972-4.025-9.857.003z" fill="none" stroke="#000000" stroke-width=".529"></path><path d="M-223.252 136.242v4.446M-233.11 136.247v4.445" fill="none" stroke="#83838a" stroke-width=".267"></path><path d="M-240.082 132.222v4.445l6.973 4.025 9.857-.003 6.966-4.027.002-4.446-6.968 4.026-9.865.054z" fill="none" stroke="#000000" stroke-width=".529"></path><path d="M-233.11 143.145v4.445M-223.252 143.141v4.446" fill="none" stroke="#83838a" stroke-width=".267"></path><path d="M-240.082 139.12v4.445l6.973 4.025 9.857-.003 6.966-4.026.002-4.446-6.968 4.028-9.857.003z" fill="none" stroke="#000000" stroke-width=".529"></path><path d="M-240.082 146.018v4.445l6.973 4.025 9.857-.003 6.967-4.026v-4.445l-6.967 4.026-9.857.003z" fill="none" stroke="#000000" stroke-width=".529"></path><path d="M-233.11 150.043v4.445" fill="none" stroke="#83838a" stroke-width=".267"></path><circle cx="-9.268" cy="254.217" fill="#4286c5" r="5.832" transform="scale(1.22475 .7071) rotate(45)"></circle><path d="M-227.78 122.24q.75.433 1.536.73.788.298 1.43.362l-.538.31q-.218.127-.73.046-.513-.08-1.181-.34-.669-.26-1.327-.64-.657-.38-1.108-.766-.45-.386-.59-.681-.138-.296.08-.422l.537-.31q.111.37.626.825.516.454 1.265.887zm-2.428 1.403q.749.432 1.536.73.788.297 1.43.361l-.538.31q-.218.127-.73.046-.513-.08-1.182-.34-.668-.26-1.326-.64-.657-.38-1.108-.766-.45-.386-.59-.681-.139-.296.08-.422l.537-.31q.11.37.626.825.516.454 1.265.887zm1.214-.701q.749.432 1.536.73.788.297 1.43.361l-.538.31q-.218.126-.73.046-.513-.08-1.181-.34-.669-.26-1.327-.64-.657-.38-1.108-.766-.45-.386-.59-.681-.138-.296.08-.422l.537-.31q.111.37.626.825.516.454 1.265.887zm3.642-2.103q.657.38 1.108.766.45.386.59.681.139.296-.08.422l-.404.234q-.218.126-.73.045-.513-.08-1.181-.34-.67-.26-1.327-.64-.657-.38-1.108-.766-.45-.386-.59-.681-.139-.296.08-.422l.404-.234q.218-.126.73-.045.513.08 1.182.34.668.26 1.326.64z" fill="#fff"></path></g></svg></g></g><g opacity="1"><g id="2443e5d0-c872-4b51-aef9-eab39cf8a6fa" transform="translate(0 0)"><g><polygon points="32 352, 96 389, 32 426, -32 389" fill="#ececed"></polygon><polygon points="-32 426, 32 463, 32 426, -32 389" fill="#d2d2d4" stroke="#83838a"></polygon><polygon points="32 463, 96 426, 96 389, 32 426" fill="#b8b8bb" stroke="#83838a"></polygon><polygon points="32 352, -32 389, -32 426, 32 463, 96 426, 96 389" fill="none" stroke="#000000" stroke-width="2"></polygon></g></g></g><g opacity="1"><g id="4863ff80-f197-45c2-ae87-599738677090" transform="translate(0 0)"><svg x="192" y="481" height="111" width="128" fill-rule="evenodd"><path d="M64 74v37l64-37V37L64 74z" fill="#b8b8bb"></path><path d="M0 37v37l64 37V74L0 37z" fill="#d2d2d4"></path><path d="M0 37L64 0l64 37-64 37L0 37z" fill="#ececed"></path><path d="M64 73.407l62.111-35.86.514.889-62.487 36.078h-.276L.743 38.072l.514-.89L64 73.407z" fill="#83838a"></path><path d="M63.486 74h1.027v36h-1.027z" fill="#83838a"></path><path d="M128 37v37l-64 37L0 74V37L64 0l64 37zM2.054 38.185v34.63L64 108.627l61.946-35.812v-34.63L64 2.373 2.054 38.185z" fill="#000000"></path></svg></g></g><g opacity="1"><g id="f0c597af-7cd5-4fa6-b70e-55345e2eacab" transform="translate(0 0)"><g><polygon points="-320 296, -256 333, -320 370, -384 333" fill="#ececed"></polygon><polygon points="-384 370, -320 407, -320 370, -384 333" fill="#d2d2d4" stroke="#83838a"></polygon><polygon points="-320 407, -256 370, -256 333, -320 370" fill="#b8b8bb" stroke="#83838a"></polygon><polygon points="-320 296, -384 333, -384 370, -320 407, -256 370, -256 333" fill="none" stroke="#000000" stroke-width="2"></polygon></g></g></g><g opacity="1"><g id="28956a18-82fc-4d21-9607-91dd33ac5a48" transform="translate(0 0)"><svg x="-144" y="414" height="113.438" width="96" viewBox="0 0 25.4 30.014"><g transform="translate(412.599 -86.957)"><path d="M-412.333 102.348v4.786l8.29 4.785h8.289l8.29-4.785v-4.786l-8.29-4.786h-8.29z" fill="#3c3c3c" fill-rule="evenodd"></path><path d="M-395.754 111.92l8.29-4.786v4.785l-8.29 4.786z" fill="#090909" fill-rule="evenodd"></path><path d="M-404.044 111.92h8.29v4.785h-8.29z" fill="#232323" fill-rule="evenodd"></path><path d="M-412.333 107.134v4.785l8.29 4.786v-4.786z" fill="#232323" fill-rule="evenodd"></path><path d="M-412.333 107.134l8.29 4.785h8.289l8.29-4.785M-404.044 111.92v4.785M-395.754 111.92v4.785" fill="none" stroke="#5e5e5e" stroke-width=".26588"></path><path d="M-412.333 102.348v9.571l8.29 4.786h8.289l8.29-4.786v-9.571l-8.29-4.786h-8.29z" fill="none" stroke="#000000" stroke-width=".53176"></path><path d="M-412.333 97.178v4.786l8.29 4.786h8.289l8.29-4.786v-4.786l-8.29-4.786h-8.29z" fill="#3c3c3c" fill-rule="evenodd"></path><path d="M-395.754 106.75l8.29-4.786v4.786l-8.29 4.786z" fill="#090909" fill-rule="evenodd"></path><path d="M-404.044 106.75h8.29v4.786h-8.29z" fill="#232323" fill-rule="evenodd"></path><path d="M-412.333 101.964v4.786l8.29 4.786v-4.786z" fill="#232323" fill-rule="evenodd"></path><path d="M-412.333 101.964l8.29 4.786h8.289l8.29-4.786M-404.044 106.75v4.786M-395.754 106.75v4.786" fill="none" stroke="#5e5e5e" stroke-width=".266"></path><path d="M-412.333 97.178v9.572l8.29 4.786h8.289l8.29-4.786v-9.572l-8.29-4.786h-8.29z" fill="none" stroke="#000000" stroke-width=".532"></path><path d="M-412.333 92.01v4.785l8.29 4.786h8.289l8.29-4.786v-4.786l-8.29-4.786h-8.29z" fill="#3c3c3c" fill-rule="evenodd"></path><path d="M-395.754 101.58l8.29-4.785v4.786l-8.29 4.786z" fill="#090909" fill-rule="evenodd"></path><path d="M-404.044 101.58h8.29v4.787h-8.29z" fill="#232323" fill-rule="evenodd"></path><path d="M-412.333 96.795v4.786l8.29 4.786v-4.786z" fill="#232323" fill-rule="evenodd"></path><path d="M-412.333 96.795l8.29 4.786h8.289l8.29-4.786M-404.044 101.58v4.787M-395.754 101.58v4.787" fill="none" stroke="#5e5e5e" stroke-width=".266"></path><path d="M-412.333 92.01v9.57l8.29 4.787h8.289l8.29-4.786v-9.572l-8.29-4.786h-8.29z" fill="none" stroke="#000000" stroke-width=".532"></path><circle cx="-136.478" cy="325.284" fill="#f4b934" r="5.801" transform="scale(1.22475 .7071) rotate(45)"></circle><g font-family="sans-serif" font-size="3.191" stroke-width=".266" style="line-height: 0%;"><path d="M-399.242 93.57l.48-.601q.222-.275.177-.448-.04-.17-.467-.416l-.507-.293 1.065-.614.937.541q.825.476.92.934.1.46-.417 1.114l-3.452 4.39-1.622-.937 1.654-2.121-3.729.923-1.622-.936z" fill="#fff" font-family="Droid Serif" font-size="9.971" style="line-height: 1.25;"></path></g></g></svg></g></g><g opacity="1"><g id="b056c410-1b4f-4855-9b32-8d4d7a8be62f" transform="translate(0 0)"><g><polygon points="-224 500, -160 537, -224 574, -288 537" fill="#ececed"></polygon><polygon points="-288 574, -224 611, -224 574, -288 537" fill="#d2d2d4" stroke="#83838a"></polygon><polygon points="-224 611, -160 574, -160 537, -224 574" fill="#b8b8bb" stroke="#83838a"></polygon><polygon points="-224 500, -288 537, -288 574, -224 611, -160 574, -160 537" fill="none" stroke="#000000" stroke-width="2"></polygon></g></g></g><g opacity="1"><g id="2685515d-0fdf-4c31-b26d-7cf5ad8c321d" transform="translate(0 0)"><svg x="-392" y="571" height="95.068" width="63" viewBox="0 0 16.669 25.153"><path d="M16.668 22.903q0 1.64-.864 2.091-.865.451-2.297-.376L3.161 18.645q-1.433-.827-2.297-2.276Q.001 14.921 0 13.28q0-.723.042-1.39.042-.666.166-1.394.124-.727.313-1.302.19-.575.51-1.039.319-.464.733-.683.414-.22 1.012-.147.598.073 1.32.49.107.06.497.58.391.52.882 1.165.491.646 1.279 1.394.788.75 1.58 1.207.793.458 1.58.618.788.161 1.28.083.49-.079.881-.147.39-.069.497-.007.722.416 1.32 1.035.598.619 1.013 1.315.414.697.734 1.531t.509 1.627q.19.793.313 1.664.124.872.166 1.586.042.713.042 1.438zM12.88 8.51q0 2.173-1.332 2.942-1.332.769-3.214-.318-1.882-1.086-3.214-3.393Q3.79 5.434 3.79 3.26q0-2.173 1.331-2.942 1.332-.77 3.214.317t3.214 3.394q1.332 2.306 1.332 4.48z" fill="#000000"></path></svg></g></g></g><g pointer-events="auto"><g opacity="1"><g id="07d7ccb5-7443-4f6e-9b75-3a1c5d923479" transform="translate(0 0)"><svg x="-320" y="333" overflow="visible"><g transform="scale(0.4245000000000001) matrix(0.707 0.409 -0.707 0.409 0 0)"><svg x="-91.5" y="-90" overflow="visible"><image xlink:href="https://images.cloudcraft.co/d4d9a5ce-5820-452a-a356-0094d4ec081b/translate.png" width="183" height="180"></image></svg></g></svg></g></g><g opacity="1"><g id="bc4ea2db-aa69-4ed1-9b8d-07817d479d08" transform="translate(0 0)"><svg x="32" y="389" overflow="visible"><g transform="scale(0.4245000000000002) matrix(0.707 0.409 -0.707 0.409 0 0)"><svg x="-100" y="-100" overflow="visible"><image xlink:href="https://images.cloudcraft.co/d4d9a5ce-5820-452a-a356-0094d4ec081b/polly.png" width="200" height="200"></image></svg></g></svg></g></g></g><g pointer-events="auto"><g opacity="1"><g id="99441ca4-7099-4eb0-baac-7bc34c23ff7e" transform="translate(0 0)"><svg x="-224" y="537" overflow="visible"><g transform="scale(1.3975424859373686) matrix(0.707 0.409 -0.707 0.409 0 0)"><svg width="100" height="100" x="-50" y="-50" style="fill: rgb(255, 255, 255);"><svg data-name="Layer 1" xmlns="http://www.w3.org/2000/svg" width="100" height="100" viewBox="0 0 100 100"><defs><radialGradient id="a" cx="181.13" cy="417.21" fx="170.1" r="49.51" gradientTransform="matrix(.29 -.96 .54 .17 -212.85 148)" gradientUnits="userSpaceOnUse"><stop offset=".17" stop-color="#fff"></stop><stop offset=".46" stop-color="#00b3ff"></stop></radialGradient><linearGradient id="b" x1="134.2" y1="135.8" x2="130.07" y2="119.43" gradientTransform="matrix(.95 -.3 .3 .95 -106.82 -39.87)" gradientUnits="userSpaceOnUse"><stop offset=".12" stop-color="#fff"></stop><stop offset=".19" stop-color="#f8fdff" stop-opacity=".97"></stop><stop offset=".31" stop-color="#e4f7ff" stop-opacity=".89"></stop><stop offset=".44" stop-color="#c3edff" stop-opacity=".76"></stop><stop offset=".6" stop-color="#95e0ff" stop-opacity=".59"></stop><stop offset=".77" stop-color="#5bceff" stop-opacity=".36"></stop><stop offset=".95" stop-color="#15b9ff" stop-opacity=".08"></stop><stop offset="1" stop-color="#00b3ff" stop-opacity="0"></stop></linearGradient></defs><g><path d="M43.78 43.23H23.5v26.6a9.12 9.12 0 0 0 9.12 9.12h34.76a9.12 9.12 0 0 0 9.12-9.12V35.07a9.12 9.12 0 0 0-9.12-9.12H47V40a3.22 3.22 0 0 1-3.22 3.23z" fill="#19486f"></path><path d="M75.91 29.43c-.05-.14-.1-.28-.16-.41A9.11 9.11 0 0 0 71 24.25l-.41-.16a9.08 9.08 0 0 0-3.2-.59H32.62a9.12 9.12 0 0 0-9.12 9.12v34.76a9.12 9.12 0 0 0 9.12 9.12h34.76a9.12 9.12 0 0 0 9.12-9.12V32.62a9.08 9.08 0 0 0-.59-3.19z" fill="#2e73b8"></path><g><path d="M58.62 33.35c-.55-.29-1.11-.54-1.68-.76l-.58-.2c-.38-.14-.75-.27-1.14-.38l-.7-.18c-.35-.09-.69-.17-1-.24l-.75-.12c-.33 0-.66-.1-1-.13l-.77-.05h-1.81l-.92.06-.82.09-.89.15-.82.17-.84.24-.82.24c-.27.09-.53.19-.79.29s-.56.21-.83.33-.48.23-.72.35-.56.27-.84.42-.37.23-.56.34a18.67 18.67 0 0 0-1.91 1.31l-.33.25c-.27.22-.53.47-.79.71s-.34.3-.51.46-.47.5-.7.75-.34.36-.49.55-.42.53-.62.81-.23.28-.33.43l-.06.08-.12.19-.3.46c-.29.45-.57.92-.82 1.41a18.66 18.66 0 0 0-2 10.78 18.85 18.85 0 0 0 .76 3.52q.27.86.63 1.69a18.71 18.71 0 0 0 4.06 6q.66.65 1.38 1.24a18.84 18.84 0 0 0 3.18 2.08c.55.29 1.11.54 1.68.76l.58.2c.38.14.75.27 1.14.38l.7.18c.34.09.69.17 1 .24l.75.12c.33 0 .66.1 1 .13l.79.05h1.81l.92-.06.82-.09.89-.15.82-.17.84-.22.83-.25c.27-.09.53-.19.79-.29s.56-.21.83-.33.48-.23.72-.35.56-.27.84-.42.37-.22.55-.33a18.68 18.68 0 0 0 1.93-1.32l.31-.24c.28-.23.54-.47.8-.72s.34-.3.5-.46.47-.5.7-.76.33-.36.49-.55.42-.53.62-.81.23-.28.33-.43l.06-.08.12-.19.3-.46c.29-.45.57-.92.82-1.4a18.75 18.75 0 0 0-8-25.27zM57 39.17a13.39 13.39 0 0 1 1.2.87l.26.23q.36.31.71.65A12.87 12.87 0 0 1 46 62.24a12.56 12.56 0 0 1-1.36-.53l-.29-.14c-.35-.17-.68-.36-1-.55l-.35-.19a13.37 13.37 0 0 1-1.2-.87l-.26-.23q-.36-.31-.71-.65A12.87 12.87 0 0 1 54 37.77a12.56 12.56 0 0 1 1.36.53l.29.14c.35.17.68.36 1 .55z" fill="url(#a)"></path><path d="M66.46 41a18.66 18.66 0 0 0-7.84-7.66c-.55-.29-1.11-.54-1.68-.76l-.58-.2c-.38-.14-.75-.27-1.14-.38l-.7-.18c-.35-.09-.69-.17-1-.24l-.75-.12c-.33 0-.66-.1-1-.13l-.77-.04h-1.81l-.92.06-.82.09-.89.15-.82.17-.84.24-.58.17 1.79 5.62a12.9 12.9 0 0 1 7.87 0 12.57 12.57 0 0 1 1.36.53l.29.14c.35.17.68.36 1 .55l.32.18a13.39 13.39 0 0 1 1.2.87l.26.23q.36.31.71.65a12.91 12.91 0 0 1 3.72 8.32l5.73-1.82A18.85 18.85 0 0 0 66.46 41z" fill="url(#b)"></path></g></g></svg></svg></g></svg></g></g><g opacity="1"><g id="ce9b346d-d095-4d20-99d8-f951808e4a96" transform="translate(0 0)"><svg x="256" y="518" overflow="visible"><g transform="scale(0.8944271909999159) matrix(0.707 0.409 -0.707 0.409 0 0)"><svg width="100" height="100" x="-50" y="-50" style="fill: rgb(255, 255, 255);"><svg data-name="Layer 1" xmlns="http://www.w3.org/2000/svg" width="100" height="100" viewBox="0 0 100 100"><g><path fill="#9d5025" d="M19.33 24.17l-3.42 1.71v48.24l3.42 1.71 13.84-24.58-13.84-27.08z"></path><path fill="#f58536" d="M27.3 73.96l-7.97 1.87V24.17l7.97 1.82v47.97z"></path><path fill="#9d5025" d="M23.1 22.28l4.2-2.09 19.95 31.98L27.3 79.81l-4.2-2.09V22.28z"></path><path fill="#f58536" d="M37.24 77l-9.94 2.81V20.19l9.94 2.82V77z"></path><path fill="#9d5025" d="M31.98 17.84l5.26-2.63 29.43 40.46-29.43 29.12-5.26-2.63V17.84z"></path><path fill="#f58536" d="M49.99 80.13l-12.75 4.66V15.21l12.75 4.67v60.25z"></path><path fill="#9d5025" d="M43.19 12.24l6.8-3.4 31.84 43.49-31.84 38.83-6.8-3.4V12.24z"></path><path fill="#f58536" d="M84.09 74.11l-34.1 17.05V8.84l34.1 17.05v48.22z"></path></g></svg></svg></g></svg></g></g></g><g pointer-events="auto"><g opacity="1"><g id="70d1b4e8-c43f-47fc-b157-ebf2944501e0"><svg x="-32" y="518" overflow="visible"><text stroke="#ffffff" stroke-width="4" font-family="Open Sans" y="36.5" font-size="25pt" fill="#f5b720" font-weight="bold" transform="matrix(0.707 0.409 -0.707 0.409 0 0)" xml:space="preserve"><tspan x="8" dy="0">User Interaction</tspan><tspan x="8" dy="1.1em">Lambda</tspan></text><text font-family="Open Sans" y="36.5" font-size="25pt" fill="#f5b720" font-weight="bold" transform="matrix(0.707 0.409 -0.707 0.409 0 0)" xml:space="preserve"><tspan x="8" dy="0">User Interaction</tspan><tspan x="8" dy="1.1em">Lambda</tspan></text></svg></g></g><g opacity="1"><g id="3dfbc178-e08e-4514-93fa-38eda8864e05"><svg x="-416" y="111" overflow="visible"><text stroke="#ffffff" stroke-width="4" font-family="Open Sans" y="36.5" font-size="25pt" fill="#f5b720" font-weight="bold" transform="matrix(0.707 0.409 -0.707 0.409 0 0)" xml:space="preserve"><tspan x="8" dy="0">DynamoDB</tspan></text><text font-family="Open Sans" y="36.5" font-size="25pt" fill="#f5b720" font-weight="bold" transform="matrix(0.707 0.409 -0.707 0.409 0 0)" xml:space="preserve"><tspan x="8" dy="0">DynamoDB</tspan></text></svg></g></g><g opacity="1"><g id="741f56b7-da5e-40bf-b1df-47c17db3c86a"><svg x="208" y="342" overflow="visible"><text stroke="#ffffff" stroke-width="4" font-family="Open Sans" y="36.5" font-size="25pt" fill="#f5b720" font-weight="bold" transform="matrix(0.707 0.409 -0.707 0.409 0 0)" xml:space="preserve"><tspan x="8" dy="0">S3 Bucket</tspan></text><text font-family="Open Sans" y="36.5" font-size="25pt" fill="#f5b720" font-weight="bold" transform="matrix(0.707 0.409 -0.707 0.409 0 0)" xml:space="preserve"><tspan x="8" dy="0">S3 Bucket</tspan></text></svg></g></g><g opacity="1"><g id="e4c9330b-b31e-4274-a8de-5296870f3185"><svg x="-304" y="657" overflow="visible"><text stroke="#ffffff" stroke-width="4" font-family="Open Sans" y="36.5" font-size="25pt" fill="#f5b720" font-weight="bold" transform="matrix(0.707 0.409 -0.707 0.409 0 0)" xml:space="preserve"><tspan x="8" dy="0">Sponsor or Child</tspan></text><text font-family="Open Sans" y="36.5" font-size="25pt" fill="#f5b720" font-weight="bold" transform="matrix(0.707 0.409 -0.707 0.409 0 0)" xml:space="preserve"><tspan x="8" dy="0">Sponsor or Child</tspan></text></svg></g></g><g opacity="1"><g id="b9ee4095-4669-498b-927d-975f10a9846e"><svg x="-144" y="583" overflow="visible"><text stroke="#ffffff" stroke-width="4" font-family="Open Sans" y="36.5" font-size="25pt" fill="#f5b720" font-weight="bold" transform="matrix(0.707 0.409 -0.707 0.409 0 0)" xml:space="preserve"><tspan x="8" dy="0">Compassion</tspan><tspan x="8" dy="1.1em">Alexa Skill</tspan></text><text font-family="Open Sans" y="36.5" font-size="25pt" fill="#f5b720" font-weight="bold" transform="matrix(0.707 0.409 -0.707 0.409 0 0)" xml:space="preserve"><tspan x="8" dy="0">Compassion</tspan><tspan x="8" dy="1.1em">Alexa Skill</tspan></text></svg></g></g><g opacity="1"><g id="3a630cf7-35c6-4841-98df-9d4647db094a"><svg x="336" y="564" overflow="visible"><text stroke="#ffffff" stroke-width="4" font-family="Open Sans" y="36.5" font-size="25pt" fill="#F5B720" font-weight="bold" transform="matrix(0.707 0.409 -0.707 0.409 0 0)" xml:space="preserve"><tspan x="8" dy="0">Moderation</tspan><tspan x="8" dy="1.1em">Service</tspan></text><text font-family="Open Sans" y="36.5" font-size="25pt" fill="#F5B720" font-weight="bold" transform="matrix(0.707 0.409 -0.707 0.409 0 0)" xml:space="preserve"><tspan x="8" dy="0">Moderation</tspan><tspan x="8" dy="1.1em">Service</tspan></text></svg></g></g><g opacity="1"><g id="50cd6b07-ea9a-41cc-afcf-59192211dcdb"><svg x="-512" y="204" overflow="visible"><text stroke="#ffffff" stroke-width="4" font-family="Open Sans" y="36.5" font-size="25pt" fill="#F5B720" font-weight="bold" transform="matrix(0.707 0.409 -0.707 0.409 0 0)" xml:space="preserve"><tspan x="8" dy="0">Amazon </tspan><tspan x="8" dy="1.1em">Translate</tspan></text><text font-family="Open Sans" y="36.5" font-size="25pt" fill="#F5B720" font-weight="bold" transform="matrix(0.707 0.409 -0.707 0.409 0 0)" xml:space="preserve"><tspan x="8" dy="0">Amazon </tspan><tspan x="8" dy="1.1em">Translate</tspan></text></svg></g></g><g opacity="1"><g id="5d17b27e-81da-4880-bfd3-3d8e8539528d"><svg x="464" y="490" overflow="visible"><text stroke="#ffffff" stroke-width="4" font-family="Open Sans" y="36.5" font-size="25pt" fill="#F5B720" font-weight="bold" transform="matrix(0.707 0.409 -0.707 0.409 0 0)" xml:space="preserve"><tspan x="8" dy="0">Moderation</tspan><tspan x="8" dy="1.1em">SNS Topic</tspan></text><text font-family="Open Sans" y="36.5" font-size="25pt" fill="#F5B720" font-weight="bold" transform="matrix(0.707 0.409 -0.707 0.409 0 0)" xml:space="preserve"><tspan x="8" dy="0">Moderation</tspan><tspan x="8" dy="1.1em">SNS Topic</tspan></text></svg></g></g><g opacity="1"><g id="3cad4f09-1b04-4ce0-82c1-48f0f86955ab"><svg x="112" y="435" overflow="visible"><text stroke="#ffffff" stroke-width="4" font-family="Open Sans" y="36.5" font-size="25pt" fill="#F5B720" font-weight="bold" transform="matrix(0.707 0.409 -0.707 0.409 0 0)" xml:space="preserve"><tspan x="8" dy="0">Amazon</tspan><tspan x="8" dy="1.1em">Polly</tspan></text><text font-family="Open Sans" y="36.5" font-size="25pt" fill="#F5B720" font-weight="bold" transform="matrix(0.707 0.409 -0.707 0.409 0 0)" xml:space="preserve"><tspan x="8" dy="0">Amazon</tspan><tspan x="8" dy="1.1em">Polly</tspan></text></svg></g></g><g opacity="1"><g id="aa91b4f9-fd63-4a56-8a4a-8621a2fa9cfd" transform="translate(0 0)"><svg x="48" y="472" overflow="visible"><text stroke="#ffffff" stroke-width="4" font-family="Open Sans" y="26.24" font-size="16pt" fill="#03a9f4" font-weight="bold" transform="matrix(0.707 0.409 -0.707 0.409 0 0)" xml:space="preserve"><tspan x="8" dy="0">Text-to-speech</tspan></text><text font-family="Open Sans" y="26.24" font-size="16pt" fill="#03a9f4" font-weight="bold" transform="matrix(0.707 0.409 -0.707 0.409 0 0)" xml:space="preserve"><tspan x="8" dy="0">Text-to-speech</tspan></text></svg></g></g><g opacity="1"><g id="9b3914e5-7c64-4e75-a9ba-926af8e64e18" transform="translate(0 0)"><svg x="176" y="361" overflow="visible"><text stroke="#ffffff" stroke-width="4" font-family="Open Sans" y="26.24" font-size="16pt" fill="#03a9f4" font-weight="bold" transform="matrix(0.707 0.409 -0.707 0.409 0 0)" xml:space="preserve"><tspan x="8" dy="0">Audio storage</tspan></text><text font-family="Open Sans" y="26.24" font-size="16pt" fill="#03a9f4" font-weight="bold" transform="matrix(0.707 0.409 -0.707 0.409 0 0)" xml:space="preserve"><tspan x="8" dy="0">Audio storage</tspan></text></svg></g></g><g opacity="1"><g id="d689f023-c711-4fa0-9733-2b0ce2ea62d6" transform="translate(0 0)"><svg x="400" y="527" overflow="visible"><text stroke="#ffffff" stroke-width="4" font-family="Open Sans" y="26.24" font-size="16pt" fill="#03a9f4" font-weight="bold" transform="matrix(0.707 0.409 -0.707 0.409 0 0)" xml:space="preserve"><tspan x="8" dy="0">Forwards events over </tspan><tspan x="8" dy="1.1em">certain threshold to moderator</tspan></text><text font-family="Open Sans" y="26.24" font-size="16pt" fill="#03a9f4" font-weight="bold" transform="matrix(0.707 0.409 -0.707 0.409 0 0)" xml:space="preserve"><tspan x="8" dy="0">Forwards events over </tspan><tspan x="8" dy="1.1em">certain threshold to moderator</tspan></text></svg></g></g><g opacity="1"><g id="0ef1cf17-5850-4ac2-992d-1223c2db08be" transform="translate(0 0)"><svg x="272" y="601" overflow="visible"><text stroke="#ffffff" stroke-width="4" font-family="Open Sans" y="26.24" font-size="16pt" fill="#03a9f4" font-weight="bold" transform="matrix(0.707 0.409 -0.707 0.409 0 0)" xml:space="preserve"><tspan x="8" dy="0">Accepts raw text and </tspan><tspan x="8" dy="1.1em">outputs cleansed text</tspan></text><text font-family="Open Sans" y="26.24" font-size="16pt" fill="#03a9f4" font-weight="bold" transform="matrix(0.707 0.409 -0.707 0.409 0 0)" xml:space="preserve"><tspan x="8" dy="0">Accepts raw text and </tspan><tspan x="8" dy="1.1em">outputs cleansed text</tspan></text></svg></g></g><g opacity="1"><g id="d4c5482d-6e18-44a3-bacd-126954609082" transform="translate(0 0)"><svg x="-448" y="130" overflow="visible"><text stroke="#ffffff" stroke-width="4" font-family="Open Sans" y="26.24" font-size="16pt" fill="#03a9f4" font-weight="bold" transform="matrix(0.707 0.409 -0.707 0.409 0 0)" xml:space="preserve"><tspan x="8" dy="0">Sponsor/child pairing and </tspan><tspan x="8" dy="1.1em">language preference storage</tspan></text><text font-family="Open Sans" y="26.24" font-size="16pt" fill="#03a9f4" font-weight="bold" transform="matrix(0.707 0.409 -0.707 0.409 0 0)" xml:space="preserve"><tspan x="8" dy="0">Sponsor/child pairing and </tspan><tspan x="8" dy="1.1em">language preference storage</tspan></text></svg></g></g><g opacity="1"><g id="e6eaa91a-94ed-4ab0-b6f5-e34fb3c46cee" transform="translate(0 0)"><svg x="-576" y="241" overflow="visible"><text stroke="#ffffff" stroke-width="4" font-family="Open Sans" y="26.24" font-size="16pt" fill="#03a9f4" font-weight="bold" transform="matrix(0.707 0.409 -0.707 0.409 0 0)" xml:space="preserve"><tspan x="8" dy="0">Language translation</tspan></text><text font-family="Open Sans" y="26.24" font-size="16pt" fill="#03a9f4" font-weight="bold" transform="matrix(0.707 0.409 -0.707 0.409 0 0)" xml:space="preserve"><tspan x="8" dy="0">Language translation</tspan></text></svg></g></g></g><g></g></g></svg>